<svg id="Layer_1" data-name="Layer 1" xmlns="http://www.w3.org/2000/svg" viewBox="0 0 311.81 105.28"><defs><style>.cls-1{fill:#b92025;}.cls-2{fill:#414042;}</style></defs><title>Untitled-1</title><path class="cls-1" d="M309.63,337l-1.58-.76c-3.69-1.79-8.06-4.09-12.52-6.59-2.23-1.25-4.52-2.58-6.82-4s-4.61-2.85-6.91-4.35-4.55-3.06-6.73-4.66-4.3-3.24-6.28-4.91a55.65,55.65,0,0,1-5.49-5.2c-.41-.42-.82-.95-1.21-1.42a16,16,0,0,1-1-1.39l-.27-.39-.22-.36-.43-.71c-.28-.48-.55-1-.79-1.42a13.63,13.63,0,0,1-1.76-5.73,4.52,4.52,0,0,1,.66-2.63A3.9,3.9,0,0,1,260,291a6.54,6.54,0,0,1,2.85-.45,6,6,0,0,1,1,.11,7.9,7.9,0,0,0-1,.14,6.69,6.69,0,0,0-2.45,1,2.85,2.85,0,0,0-1,1.28,3.35,3.35,0,0,0-.1,1.87,13.09,13.09,0,0,0,2.26,4.56l.89,1.21.48.6.24.31s0,.06,0,0l0,0,0,0,.07.07.14.15c.37.4.74.87,1.11,1.2s.72.72,1.16,1.09a70.73,70.73,0,0,0,5.57,4.48c2,1.49,4.14,3,6.32,4.48s4.42,3,6.69,4.46,4.52,2.95,6.75,4.41l6.58,4.25c3.29,2.13,6.5,4.25,9.32,6.11-13.82-22.41-36.17-50.44-36.17-50.44,9.59-32.83-37.81-43.35-32.65.37,2.1,17.75,10.33,33.62,19,44.55l-6.92,24.62-12.76.14v3.69l13.71-.15a97.07,97.07,0,0,0,11.23,2.42,69.12,69.12,0,0,0,10.24,1c4.64,0,6.22-1,7-2.14,2.77-3.79,1.65-15.15,1-20.21.7-13.89,3.61-7.62,3.61-7.62s3.14,12.17,17.34,22.87,15.86,2.77,15.86,2.77C316.64,350.11,313.69,344,309.63,337ZM255.53,283c-1.48.87-3.93-6-5.09-9.63-.14,0-.27,0-.41,0a4.62,4.62,0,1,1,4.16-6.6,4.62,4.62,0,1,1,4.16,6.6l-.17,0C257.72,277,256.84,282.28,255.53,283Zm4.39,47.23a53.43,53.43,0,0,0,10.19,9.19l-13.26,1.74Zm16.69,24c-1.56,1.53-10.22.59-22.75-2.43l1.89-6.73,21.69-2.85C277.83,347.48,277.75,352.67,276.61,354.24Z" transform="translate(-237.36 -253.29)"/><path class="cls-2" d="M367.08,268.16v42.68h-8.45v-33.4L349,310.85h-5.25L334.12,278v32.89h-3.2V268.16h8.9L349,299.77l9.28-31.61Z" transform="translate(-237.36 -253.29)"/><path class="cls-2" d="M404.7,310.23a22.74,22.74,0,0,1-6.08,1q-5.44,0-6.21-4.55a8.88,8.88,0,0,1-8.19,4.8,9,9,0,0,1-6.78-2.59,9.49,9.49,0,0,1-2.5-6.88,8.3,8.3,0,0,1,4.48-7.68l8.26-3.2q4.48-1.86,4.48-5.19a5.64,5.64,0,0,0-1.57-4.06,5.31,5.31,0,0,0-4-1.63,6.47,6.47,0,0,0-4.42,1.57,5.08,5.08,0,0,0-1.79,4,14.48,14.48,0,0,0,.83,3.71l-4.16-.89a22.17,22.17,0,0,1-.32-2.3,6.68,6.68,0,0,1,3.77-6,14.58,14.58,0,0,1,7.36-1.79q11.84,0,11.84,6.91v19.45q0,3.72,2.43,3.71a4.41,4.41,0,0,0,2-.51ZM392,290.75a13.43,13.43,0,0,1-4.09,3,13.33,13.33,0,0,0-3.58,2.4,8,8,0,0,0-1.54,5.31q0,7.23,3.58,7.23a4.74,4.74,0,0,0,4.29-2.69,9.87,9.87,0,0,0,1.34-5.18Z" transform="translate(-237.36 -253.29)"/><path class="cls-2" d="M428,289.79h-5.7c.26-.9.49-1.77.7-2.62a10.36,10.36,0,0,0,.45-2.69q0-2.24-1.54-2.24-2.37,0-3.78,3.78a16.52,16.52,0,0,0-1.09,5.89v18.94h-7.74V279.36a40.91,40.91,0,0,0,7.74-.83v6.72q2.81-6.72,7.55-6.72a3.89,3.89,0,0,1,3.3,1.58,6.1,6.1,0,0,1,1.18,3.76A26.77,26.77,0,0,1,428,289.79Z" transform="translate(-237.36 -253.29)"/><path class="cls-2" d="M458.46,279.36l-14.08,36.29a14.9,14.9,0,0,1-2.5,4.61,5.93,5.93,0,0,1-4.61,2,5.19,5.19,0,0,1-5.31-3.71l2.94-2.11q.45,3.32,2.43,3.39,2.43.06,3.78-2.82.9-2.43,1.73-4.93l-11.71-32.7h8.32l7.61,22.59,8.51-22.59Z" transform="translate(-237.36 -253.29)"/><path class="cls-2" d="M484.5,279.36V282l-15.23,26.11H484.5v2.75H461v-3.14L476.18,282H462.36v-2.62Z" transform="translate(-237.36 -253.29)"/><path class="cls-2" d="M519.06,310.23a22.74,22.74,0,0,1-6.08,1q-5.44,0-6.21-4.55a8.88,8.88,0,0,1-8.19,4.8,9,9,0,0,1-6.78-2.59,9.49,9.49,0,0,1-2.5-6.88,8.31,8.31,0,0,1,4.48-7.68l8.25-3.2q4.48-1.86,4.48-5.19a5.64,5.64,0,0,0-1.57-4.06,5.31,5.31,0,0,0-4-1.63,6.47,6.47,0,0,0-4.42,1.57,5.08,5.08,0,0,0-1.79,4,14.48,14.48,0,0,0,.83,3.71l-4.16-.89a23.07,23.07,0,0,1-.32-2.3,6.68,6.68,0,0,1,3.78-6,14.58,14.58,0,0,1,7.36-1.79q11.84,0,11.84,6.91v19.45q0,3.72,2.43,3.71a4.42,4.42,0,0,0,2-.51Zm-12.67-19.47a13.44,13.44,0,0,1-4.1,3,13.29,13.29,0,0,0-3.58,2.4,8,8,0,0,0-1.54,5.31q0,7.23,3.58,7.23A4.74,4.74,0,0,0,505,306a9.88,9.88,0,0,0,1.34-5.18Z" transform="translate(-237.36 -253.29)"/><path class="cls-2" d="M548.5,267.52v43.32h-7.62v-3.39a9.38,9.38,0,0,1-7.68,4.1q-11.07,0-11.07-16.83a22.91,22.91,0,0,1,2.3-10.82,9.53,9.53,0,0,1,8.9-5.44q4.86,0,7.55,5.63V268.16A52.14,52.14,0,0,0,548.5,267.52ZM530.26,295v1.34a34.61,34.61,0,0,0,.7,8.06q1.07,4.22,4.3,4.22a4.59,4.59,0,0,0,4-2.11,8.73,8.73,0,0,0,1.45-4.51q.19-2.72.19-7.07,0-3.32-.31-7a8.64,8.64,0,0,0-1.52-4.29,4.38,4.38,0,0,0-3.67-2.24q-3.16,0-4.3,4.35A38.27,38.27,0,0,0,530.26,295Z" transform="translate(-237.36 -253.29)"/><path class="cls-1" d="M335.72,340.55h-.58l-2.6-6.17q-.54-1.27-1.08-2.77h-.06q.11,2.15.11,3.95v5h-1.26V330.22h1.81l2.43,5.85q.42,1,.92,2.41h0q.56-1.57.92-2.41l2.43-5.85h1.81v10.33h-1.26v-5q0-1.75.11-3.95h-.06q-.57,1.58-1.08,2.77Z" transform="translate(-237.36 -253.29)"/><path class="cls-1" d="M356,340.74a3.93,3.93,0,0,1-1-.12,2.84,2.84,0,0,1-.8-.35,2.32,2.32,0,0,1-.58-.54,2.64,2.64,0,0,1-.38-.68,2.7,2.7,0,0,1-.15-.61,5.28,5.28,0,0,1,0-.73v-4.5h1.2v4.49a2.79,2.79,0,0,0,.16,1,1.53,1.53,0,0,0,.6.73,1.91,1.91,0,0,0,1.05.27,1.84,1.84,0,0,0,1.09-.29,1.61,1.61,0,0,0,.59-.79,2.91,2.91,0,0,0,.13-.93v-4.49h1.2v4.51a5.26,5.26,0,0,1,0,.69,3.07,3.07,0,0,1-.14.59,2.61,2.61,0,0,1-.38.7,2.3,2.3,0,0,1-.6.55,2.86,2.86,0,0,1-.82.36A4,4,0,0,1,356,340.74Z" transform="translate(-237.36 -253.29)"/><path class="cls-1" d="M371.42,340.55V329.37h1.2v11.18Z" transform="translate(-237.36 -253.29)"/><path class="cls-1" d="M388.92,340.57a2.26,2.26,0,0,1-.47.12,5.05,5.05,0,0,1-.76.06,3.21,3.21,0,0,1-1-.14,1.89,1.89,0,0,1-.71-.41,1.67,1.67,0,0,1-.42-.65,2.44,2.44,0,0,1-.14-.84v-4.46H384v-1h1.41v-2h1.2v2h2.19v1h-2.19v4.28a1.47,1.47,0,0,0,.07.47,1,1,0,0,0,.23.37,1.06,1.06,0,0,0,.4.25,1.75,1.75,0,0,0,.59.09,3.19,3.19,0,0,0,.51,0,3.76,3.76,0,0,0,.49-.1Z" transform="translate(-237.36 -253.29)"/><path class="cls-1" d="M400.62,331.51v-1.34h1.2v1.34Zm0,9v-7.33h1.2v7.33Z" transform="translate(-237.36 -253.29)"/><path class="cls-1" d="M428.9,340.55h-1.26V330.22h2.86a8.53,8.53,0,0,1,1.18.08,5.31,5.31,0,0,1,1,.24,2.87,2.87,0,0,1,1.4,1,2.7,2.7,0,0,1,.48,1.62,3,3,0,0,1-.31,1.39,2.7,2.7,0,0,1-.91,1,4.36,4.36,0,0,1-1.44.61,8.34,8.34,0,0,1-1.93.2c-.34,0-.7,0-1.07,0Zm0-5.4.53,0,.52,0a7.21,7.21,0,0,0,1.51-.14,3,3,0,0,0,1-.41,1.58,1.58,0,0,0,.57-.65,2,2,0,0,0,.18-.87,1.61,1.61,0,0,0-.29-1,1.79,1.79,0,0,0-.82-.59,3.31,3.31,0,0,0-.76-.17,8.69,8.69,0,0,0-1-.05H428.9Z" transform="translate(-237.36 -253.29)"/><path class="cls-1" d="M450.56,334.19h-.09a4.56,4.56,0,0,0-.84.08,3.55,3.55,0,0,0-.77.23,3,3,0,0,0-.65.39,2.14,2.14,0,0,0-.48.55v5.11h-1.19v-7.33h.93l.23,1.17h0a2.74,2.74,0,0,1,.44-.53,3.09,3.09,0,0,1,.58-.43,3,3,0,0,1,.71-.29,3,3,0,0,1,.81-.1h.3Z" transform="translate(-237.36 -253.29)"/><path class="cls-1" d="M468.41,336.89a4.72,4.72,0,0,1-.25,1.58,3.55,3.55,0,0,1-.7,1.21,3.1,3.1,0,0,1-1.09.78,3.6,3.6,0,0,1-1.44.28,3.67,3.67,0,0,1-1.46-.28,3.1,3.1,0,0,1-1.1-.78,3.5,3.5,0,0,1-.69-1.21,5,5,0,0,1-.24-1.58,4.82,4.82,0,0,1,.25-1.58,3.61,3.61,0,0,1,.7-1.22,3.07,3.07,0,0,1,1.1-.79,3.62,3.62,0,0,1,1.44-.28,3.69,3.69,0,0,1,1.46.28,3,3,0,0,1,1.1.79,3.5,3.5,0,0,1,.69,1.22A5,5,0,0,1,468.41,336.89Zm-1.25,0a4,4,0,0,0-.17-1.21,2.69,2.69,0,0,0-.46-.9,2,2,0,0,0-.71-.55,2.21,2.21,0,0,0-1.79,0,2,2,0,0,0-.7.55,2.69,2.69,0,0,0-.46.9,4.49,4.49,0,0,0,0,2.41,2.56,2.56,0,0,0,.47.89,2,2,0,0,0,.71.55,2.09,2.09,0,0,0,.89.19,2.06,2.06,0,0,0,.89-.19,2,2,0,0,0,.7-.55,2.6,2.6,0,0,0,.46-.89A4,4,0,0,0,467.16,336.89Z" transform="translate(-237.36 -253.29)"/><path class="cls-1" d="M481.76,342.19a2.11,2.11,0,0,1-.58,1.58,2.55,2.55,0,0,1-1.84.57,4.21,4.21,0,0,1-.64,0,2.84,2.84,0,0,1-.45-.1v-1l.46.1a3.31,3.31,0,0,0,.48,0,1.49,1.49,0,0,0,1.05-.3,1.24,1.24,0,0,0,.32-.94v-8.83h1.2Zm-1.23-10.67v-1.34h1.2v1.34Z" transform="translate(-237.36 -253.29)"/><path class="cls-1" d="M497.67,339.7a5.56,5.56,0,0,0,1.08-.1,6.44,6.44,0,0,0,1-.27v1a4,4,0,0,1-1,.31,6.61,6.61,0,0,1-1.24.11,5.21,5.21,0,0,1-1.48-.2,3,3,0,0,1-1.19-.65,3,3,0,0,1-.79-1.17,4.75,4.75,0,0,1-.29-1.74,5,5,0,0,1,.28-1.74,3.68,3.68,0,0,1,.74-1.23,3.05,3.05,0,0,1,1.06-.74,3.27,3.27,0,0,1,1.25-.25,3.21,3.21,0,0,1,1.15.2,2.36,2.36,0,0,1,.93.65,3.11,3.11,0,0,1,.62,1.14,5.35,5.35,0,0,1,.23,1.67v.16s0,.14,0,.3H495a3,3,0,0,0,.21,1.19,2.07,2.07,0,0,0,.58.8,2.28,2.28,0,0,0,.86.44A3.87,3.87,0,0,0,497.67,339.7Zm-.63-5.65a1.84,1.84,0,0,0-.77.16,1.94,1.94,0,0,0-.62.44,2.16,2.16,0,0,0-.43.65,2.51,2.51,0,0,0-.2.8h3.75a2.74,2.74,0,0,0-.11-.81,2,2,0,0,0-.33-.65,1.53,1.53,0,0,0-.54-.44A1.63,1.63,0,0,0,497,334.05Z" transform="translate(-237.36 -253.29)"/><path class="cls-1" d="M515.24,333a4.44,4.44,0,0,1,1,.11,3,3,0,0,1,.83.31v1a6.58,6.58,0,0,0-.89-.28,3.76,3.76,0,0,0-.84-.09,2.74,2.74,0,0,0-.89.15,2,2,0,0,0-.79.48,2.42,2.42,0,0,0-.56.89,3.84,3.84,0,0,0-.21,1.37,3.56,3.56,0,0,0,.16,1.1,2.43,2.43,0,0,0,.47.87,2.14,2.14,0,0,0,.78.57,2.72,2.72,0,0,0,1.09.2,4.28,4.28,0,0,0,.9-.1,5.13,5.13,0,0,0,.89-.27v1a2.12,2.12,0,0,1-.34.15,3.26,3.26,0,0,1-.47.14,5,5,0,0,1-.54.09,4.84,4.84,0,0,1-.57,0,4.33,4.33,0,0,1-1.4-.22,3.19,3.19,0,0,1-1.15-.69,3.23,3.23,0,0,1-.78-1.17,4.52,4.52,0,0,1-.29-1.68,5.24,5.24,0,0,1,.15-1.3,3.87,3.87,0,0,1,.41-1,3.1,3.1,0,0,1,.61-.75,3.55,3.55,0,0,1,.75-.51,3.51,3.51,0,0,1,.82-.29A4.21,4.21,0,0,1,515.24,333Z" transform="translate(-237.36 -253.29)"/><path class="cls-1" d="M532.93,340.57a2.24,2.24,0,0,1-.47.12,5.08,5.08,0,0,1-.76.06,3.21,3.21,0,0,1-1-.14,1.88,1.88,0,0,1-.7-.41,1.64,1.64,0,0,1-.42-.65,2.4,2.4,0,0,1-.14-.84v-4.46H528v-1h1.41v-2h1.2v2h2.19v1h-2.19v4.28a1.4,1.4,0,0,0,.07.47.94.94,0,0,0,.23.37,1.07,1.07,0,0,0,.41.25,1.75,1.75,0,0,0,.59.09,3.19,3.19,0,0,0,.5,0,3.64,3.64,0,0,0,.49-.1Z" transform="translate(-237.36 -253.29)"/><path class="cls-1" d="M545.45,335.17a.89.89,0,0,0,.13.5,1,1,0,0,0,.34.31,2.29,2.29,0,0,0,.5.2l.59.14.78.2a2.31,2.31,0,0,1,.68.34,1.62,1.62,0,0,1,.5.61,2.18,2.18,0,0,1,.19,1,2.16,2.16,0,0,1-.22,1,2,2,0,0,1-.61.72,2.8,2.8,0,0,1-.94.44,4.6,4.6,0,0,1-1.21.15,5.69,5.69,0,0,1-.73,0,4.88,4.88,0,0,1-.58-.11,3.2,3.2,0,0,1-.43-.14l-.29-.13v-1a6,6,0,0,0,.9.29,4.1,4.1,0,0,0,1,.11,3.49,3.49,0,0,0,.76-.08,1.91,1.91,0,0,0,.59-.23,1.07,1.07,0,0,0,.38-.38,1,1,0,0,0,.13-.53,1,1,0,0,0-.12-.51,1,1,0,0,0-.33-.33,2,2,0,0,0-.47-.22l-.56-.15-.78-.2a2.67,2.67,0,0,1-.72-.33,1.54,1.54,0,0,1-.53-.57,1.88,1.88,0,0,1-.2-.92,2.25,2.25,0,0,1,.21-1,2,2,0,0,1,.56-.7,2.48,2.48,0,0,1,.82-.42,3.49,3.49,0,0,1,1-.14,5.27,5.27,0,0,1,1.13.12,5.54,5.54,0,0,1,.95.29v1a7.29,7.29,0,0,0-.91-.29,4.47,4.47,0,0,0-1-.12,2.56,2.56,0,0,0-.71.08,1.43,1.43,0,0,0-.48.23,1,1,0,0,0-.27.36A1.16,1.16,0,0,0,545.45,335.17Z" transform="translate(-237.36 -253.29)"/></svg>